<?xml version="1.0" standalone="no"?><!DOCTYPE svg PUBLIC "-//W3C//DTD SVG 1.1//EN" "http://www.w3.org/Graphics/SVG/1.1/DTD/svg11.dtd"><svg t="1734938584903" class="icon" viewBox="0 0 1024 1024" version="1.1" xmlns="http://www.w3.org/2000/svg" p-id="2461" xmlns:xlink="http://www.w3.org/1999/xlink" width="200" height="200"><path d="M763.52 970.24H261.248C147.2 970.24 54.784 877.824 54.784 763.776V261.504C54.784 147.456 147.2 55.04 261.248 55.04h502.272c114.048 0 206.464 92.416 206.464 206.464v502.272c0 114.048-92.416 206.464-206.464 206.464z" fill="#00A4D5" p-id="2462"></path><path d="M833.792 514.56c0-47.616-31.488-87.68-74.496-101.504 8.32-15.36 13.184-32.512 13.184-50.432 0-28.672-11.136-55.552-31.36-75.776-20.224-20.224-47.104-31.36-75.776-31.36-17.28 0-33.792 4.48-48.768 12.288-13.44-44.032-53.888-76.288-102.144-76.288-47.616 0-87.68 31.488-101.632 74.624-40.576-21.632-92.032-15.872-126.208 18.304-20.224 20.224-31.36 47.104-31.36 75.776 0 17.28 4.48 33.792 12.288 48.768-44.032 13.44-76.288 53.888-76.288 102.144 0 47.616 31.488 87.68 74.624 101.632-21.632 40.576-15.872 92.032 18.304 126.208 20.224 20.224 47.232 31.36 75.776 31.36 17.28 0 33.792-4.48 48.768-12.288 13.312 44.032 53.888 76.288 102.144 76.288 47.616 0 87.68-31.488 101.632-74.496 15.36 8.32 32.512 13.056 50.432 13.056 28.672 0 55.552-11.136 75.776-31.36 20.224-20.224 31.36-47.232 31.36-75.776 0-17.28-4.48-33.792-12.288-48.768 43.776-13.696 76.032-54.144 76.032-102.4z m-110.848-209.792c15.488 15.488 23.936 35.968 23.936 57.728 0 16.384-4.864 32.128-13.824 45.44-2.176-0.128-4.224-0.64-6.528-0.64h-71.808c-16 0-30.976 3.712-44.544 9.984 7.04-14.208 11.264-30.08 11.264-46.976v-71.808c0-1.536-0.384-2.944-0.384-4.352 31.36-19.584 75.136-16.128 101.888 10.624z m-168.96 367.616c-25.344-25.344-30.208-63.232-15.232-93.696 31.104 11.52 53.376 41.216 53.376 76.288v55.68l-38.144-38.272zM511.488 577.28c-0.512-1.28-0.768-2.688-1.152-3.968h0.256c0.768 0 1.536 0.256 2.176 0.256-0.512 1.152-0.768 2.56-1.28 3.712z m-19.328 34.688c0 21.888-8.448 42.368-23.936 57.728l-39.296 39.296v-54.016c0-35.84 23.424-66.048 55.552-77.056 4.864 10.624 7.68 22.016 7.68 34.048z m-21.376-259.072c25.344 25.344 30.208 63.232 15.104 93.696-31.104-11.52-53.376-41.216-53.376-76.288v-55.68l38.272 38.272zM513.28 448c0.512 1.28 0.768 2.688 1.28 3.968h-0.256c-0.768 0-1.536-0.256-2.304-0.256 0.512-1.152 0.896-2.56 1.28-3.712z m19.456-34.688c0-21.888 8.448-42.368 23.936-57.728l39.296-39.296v54.144c0 35.84-23.424 66.048-55.552 77.056-4.992-10.752-7.68-22.144-7.68-34.176z m40.32 101.248c0-0.768 0.256-1.408 0.256-2.048 1.28 0.512 2.56 0.64 3.84 1.152-1.28 0.384-2.688 0.768-3.968 1.152-0.128-0.128-0.128-0.256-0.128-0.256z m-24.192 13.568c-4.48 3.328-8.96 6.656-12.928 10.624-3.328 3.328-5.888 7.04-8.704 10.624-5.504-0.896-11.008-1.664-16.64-1.664-4.608 0-9.088 0.768-13.568 1.408-3.328-4.48-6.656-8.96-10.624-12.928-3.328-3.328-7.04-5.888-10.624-8.704 0.896-5.504 1.664-10.88 1.664-16.64 0-4.736-0.768-9.216-1.408-13.696 4.48-3.2 8.96-6.528 13.056-10.624 3.328-3.328 5.888-7.04 8.704-10.624 5.504 0.896 11.008 1.664 16.64 1.664 4.608 0 9.088-0.768 13.568-1.408 3.328 4.48 6.656 8.96 10.624 12.928 3.328 3.328 7.04 5.888 10.624 8.704-0.896 5.504-1.664 10.88-1.664 16.64 0 4.736 0.768 9.216 1.28 13.696z m6.912 27.264c0.512 1.28 1.28 2.432 1.792 3.712-1.28-0.64-2.432-1.408-3.712-2.048 0.128-0.128 0.128-0.128 0.128-0.256 0.512-0.512 1.152-0.896 1.792-1.408z m-87.552-1.152c0.512 0.512 0.896 1.152 1.408 1.792-1.28 0.512-2.432 1.28-3.712 1.792 0.64-1.28 1.408-2.432 2.048-3.712 0.128 0 0.128 0 0.256 0.128z m-16.512-43.52c0 0.768-0.256 1.408-0.256 2.176-1.28-0.512-2.56-0.768-3.84-1.152 1.28-0.512 2.688-0.64 4.096-1.152v0.128z m17.408-40.832c-0.512-1.28-1.28-2.432-1.792-3.584 1.28 0.64 2.432 1.408 3.712 2.048 0 0-0.128 0.128-0.128 0.256-0.64 0.384-1.28 0.768-1.792 1.28z m87.552 1.152c-0.512-0.512-0.896-1.152-1.408-1.792 1.28-0.512 2.432-1.28 3.584-1.792-0.64 1.28-1.408 2.432-2.048 3.712 0 0-0.128 0-0.128-0.128z m-109.696 13.312c-30.08 13.184-67.712 8.064-91.648-15.872l-39.296-39.296h54.144c35.584-0.128 65.792 23.168 76.8 55.168z m-0.512 54.656c-11.52 31.104-41.216 53.504-76.288 53.504h-55.68l38.272-38.272c15.488-15.488 35.968-23.936 57.728-23.936 12.672 0 24.832 3.2 35.968 8.704z m131.2 1.536c10.624-4.864 22.016-7.68 34.048-7.68 21.888 0 42.368 8.448 57.728 23.936l39.296 39.296h-54.016c-35.84 0.128-66.048-23.296-77.056-55.552z m0.768-54.528c11.648-30.976 41.344-53.12 76.288-53.12H710.4L672.128 471.04c-24.448 24.576-63.232 29.312-93.696 14.976z m-64.128-269.184c39.552 0 72.704 28.288 80.128 65.792-1.664 1.408-3.456 2.56-4.992 4.096l-50.816 50.816c-11.136 11.136-19.2 24.32-24.448 38.528-5.12-14.976-13.312-29.184-25.216-41.216l-50.816-50.816c-1.152-1.152-2.432-1.92-3.584-2.944 7.936-36.608 40.576-64.256 79.744-64.256zM280.576 359.936c0-21.888 8.448-42.368 23.936-57.728 15.872-15.872 36.864-23.936 57.728-23.936 15.872 0 31.744 4.608 45.44 13.824-0.128 2.176-0.64 4.224-0.64 6.4v71.808c0 16 3.712 30.976 9.984 44.544-14.208-7.04-30.08-11.264-46.976-11.264H298.24c-1.536 0-3.072 0.384-4.608 0.512-8.448-13.184-13.056-28.288-13.056-44.16z m-64 150.784c0-39.552 28.288-72.704 65.792-80.128 1.408 1.664 2.56 3.456 4.096 4.992l50.816 50.816c11.264 11.264 24.576 19.2 38.528 24.448-15.232 5.248-29.44 13.44-41.216 25.216l-50.816 50.816c-1.152 1.152-1.92 2.432-2.944 3.584-36.608-7.936-64.256-40.576-64.256-79.744z m85.376 209.792c-28.032-28.032-31.36-71.424-10.112-103.168 2.176 0.128 4.224 0.64 6.4 0.64h71.808c16 0 30.976-3.712 44.544-9.984-7.04 14.208-11.264 30.08-11.264 46.976v71.808c0 1.536 0.384 2.944 0.384 4.352-31.232 19.584-75.136 16.128-101.76-10.624z m208.64 87.936c-39.552 0-72.704-28.288-80.128-65.792 1.664-1.408 3.456-2.56 4.992-4.096l50.816-50.816c11.136-11.136 19.2-24.32 24.448-38.528 5.12 14.976 13.312 29.184 25.216 41.216l50.816 50.816c1.152 1.152 2.432 1.92 3.584 2.944-8.064 36.736-40.704 64.256-79.744 64.256z m233.6-143.104c0 21.888-8.448 42.368-23.936 57.728-27.008 27.136-71.808 30.336-103.168 9.984 0.128-2.176 0.64-4.096 0.64-6.272v-71.808c0-16-3.712-30.976-9.984-44.544 14.208 7.04 30.08 11.264 46.976 11.264h71.808c1.536 0 3.072-0.384 4.608-0.512 8.448 13.184 13.056 28.288 13.056 44.16z m-1.792-70.784c-1.408-1.664-2.56-3.456-4.096-4.992l-50.816-50.816c-11.008-11.136-24.192-19.2-38.528-24.448 15.232-5.248 29.44-13.44 41.088-25.216l50.816-50.816c1.152-1.152 1.92-2.432 2.944-3.584 36.736 7.936 64.384 40.704 64.384 79.744 0 39.68-28.288 72.704-65.792 80.128z" fill="#FFFFFF" p-id="2463"></path></svg>